<svg width="39" height="25" viewBox="0 0 39 25" fill="none" xmlns="http://www.w3.org/2000/svg">
<path d="M35.9277 0.477539H3.92773C2.22773 0.477539 0.927734 1.77754 0.927734 3.47754V21.4775C0.927734 23.1775 2.32773 24.4775 3.92773 24.4775H35.9277C37.6277 24.4775 38.9277 23.1775 38.9277 21.4775V3.47754C38.9277 1.77754 37.5277 0.477539 35.9277 0.477539Z" fill="#015FB0"/>
<path d="M35.9277 1.47681C37.0277 1.47681 37.9277 2.37681 37.9277 3.47681V21.4768C37.9277 22.5768 37.0277 23.4768 35.9277 23.4768H3.92773C2.82773 23.4768 1.92773 22.5768 1.92773 21.4768V3.47681C1.92773 2.37681 2.82773 1.47681 3.92773 1.47681H35.9277Z" fill="#006FCF"/>
<path d="M9.89873 10.7455L10.6727 12.6215H9.13073L9.89873 10.7455ZM25.9737 10.8235H22.9967V11.6505H25.9257V12.8895H23.0027V13.8115H25.9797V14.5505L28.0567 12.3055L25.9797 9.96553L25.9737 10.8235ZM11.9107 8.48354H15.9057L16.7927 10.4185L17.6147 8.47754H27.9847L29.0627 9.66753L30.1777 8.47754H34.9407L31.4217 12.3295L34.9047 16.1575H30.0707L28.9927 14.9675L27.8677 16.1575H10.9577L10.4637 14.9675H9.33373L8.83873 16.1575H4.92773L8.21373 8.47754H11.6437L11.9107 8.48354ZM20.5737 9.56153H18.3347L16.8347 13.0975L15.2097 9.56153H12.9877V14.3715L10.9277 9.56153H8.93473L6.55273 15.0735H8.10773L8.60173 13.8835H11.1977L11.6917 15.0735H14.4117V11.1385L16.1627 15.0795H17.3527L19.0927 11.1505V15.0805H20.5507L20.5747 9.56053L20.5737 9.56153ZM29.9137 12.3295L32.4447 9.56153H30.6227L29.0217 11.2875L27.4737 9.56153H21.5797V15.0795H27.3897L29.0037 13.3415L30.5517 15.0795H32.4267L29.9147 12.3295H29.9137Z" fill="white"/>
</svg>
