<svg width="39" height="25" viewBox="0 0 39 25" fill="none" xmlns="http://www.w3.org/2000/svg">
<path opacity="0.07" d="M35.9277 0.477539H3.92773C2.22773 0.477539 0.927734 1.77754 0.927734 3.47754V21.4775C0.927734 23.1775 2.32773 24.4775 3.92773 24.4775H35.9277C37.6277 24.4775 38.9277 23.1775 38.9277 21.4775V3.47754C38.9277 1.77754 37.5277 0.477539 35.9277 0.477539Z" fill="black"/>
<path d="M35.9277 1.47681C37.0277 1.47681 37.9277 2.37681 37.9277 3.47681V21.4768C37.9277 22.5768 37.0277 23.4768 35.9277 23.4768H3.92773C2.82773 23.4768 1.92773 22.5768 1.92773 21.4768V3.47681C1.92773 2.37681 2.82773 1.47681 3.92773 1.47681H35.9277Z" fill="white"/>
<path d="M19.0207 12.4538V15.6538H18.0027V7.75377H20.6937C21.0161 7.74831 21.3364 7.80664 21.6362 7.9254C21.9361 8.04415 22.2094 8.221 22.4407 8.44577C22.6597 8.65017 22.8363 8.89573 22.9604 9.16842C23.0845 9.4411 23.1536 9.73557 23.1638 10.035C23.174 10.3344 23.1251 10.6329 23.0199 10.9134C22.9147 11.1939 22.7553 11.4509 22.5507 11.6698L22.4407 11.7858C21.9707 12.2328 21.3427 12.4758 20.6937 12.4598L19.0207 12.4538ZM19.0207 8.72178V11.5098H20.7187C21.0957 11.5218 21.4597 11.3748 21.7237 11.1058C21.9125 10.909 22.0393 10.661 22.0883 10.3926C22.1373 10.1243 22.1063 9.84747 21.9992 9.59661C21.8921 9.34575 21.7136 9.13191 21.4859 8.9817C21.2583 8.83149 20.9914 8.75153 20.7187 8.75178L19.0207 8.72178ZM25.5047 10.0698C26.1547 10.0398 26.7907 10.2578 27.2827 10.6828C27.7277 11.1128 27.9647 11.7128 27.9327 12.3318V15.6658H26.9637V14.8998H26.9147C26.7409 15.1871 26.4952 15.4241 26.2018 15.5874C25.9084 15.7507 25.5774 15.8346 25.2417 15.8308C24.6936 15.8486 24.1591 15.6581 23.7457 15.2978C23.5498 15.138 23.3928 14.9358 23.2866 14.7064C23.1804 14.4771 23.1278 14.2265 23.1327 13.9738C23.1211 13.7184 23.1707 13.4639 23.2774 13.2316C23.384 12.9992 23.5445 12.7956 23.7457 12.6378C24.2391 12.283 24.8363 12.1018 25.4437 12.1228C25.9607 12.1028 26.4737 12.2158 26.9337 12.4538V12.2458C26.937 12.0738 26.9013 11.9033 26.829 11.7472C26.7568 11.5911 26.65 11.4535 26.5167 11.3448C26.249 11.1014 25.8984 10.9698 25.5367 10.9768C25.274 10.9743 25.015 11.0389 24.7842 11.1643C24.5534 11.2898 24.3584 11.472 24.2177 11.6938L23.3227 11.1298C23.5657 10.7816 23.8938 10.5014 24.2757 10.3158C24.6577 10.1303 25.0807 10.0456 25.5047 10.0698ZM24.2177 13.9978C24.2153 14.1273 24.2447 14.2555 24.3035 14.3709C24.3623 14.4863 24.4485 14.5856 24.5547 14.6598C24.7777 14.8358 25.0547 14.9288 25.3397 14.9228C25.7687 14.9218 26.1797 14.7528 26.4857 14.4508C26.7907 14.1648 26.9637 13.7658 26.9637 13.3478C26.5787 13.0741 26.1109 12.942 25.6397 12.9738C25.2738 12.9594 24.9128 13.0624 24.6097 13.2678C24.4896 13.3481 24.3911 13.4567 24.3227 13.584C24.2544 13.7113 24.2183 13.8534 24.2177 13.9978ZM33.5037 10.2478L30.1137 18.0378H29.0657L30.3467 15.3098L28.1227 10.2478H29.2257L30.8377 14.1328L32.4067 10.2478H33.5037Z" fill="#5F6368"/>
<path d="M14.9138 11.7615C14.9138 11.4535 14.8898 11.1455 14.8408 10.8416H10.5508V12.5884H13.0018C12.9519 12.866 12.8464 13.1307 12.6918 13.3666C12.5372 13.6025 12.3365 13.8048 12.1018 13.9613V15.0952H13.5658C14.0109 14.6645 14.3609 14.1454 14.593 13.5712C14.8252 12.997 14.9345 12.3805 14.9138 11.7615Z" fill="#4285F4"/>
<path d="M10.5567 16.1988C11.663 16.2292 12.7394 15.8369 13.5667 15.1017L12.1007 13.9616C11.7485 14.1875 11.3494 14.33 10.9338 14.3785C10.5181 14.4269 10.0969 14.3799 9.70222 14.241C9.3075 14.1022 8.94963 13.8751 8.65583 13.5772C8.36204 13.2792 8.14005 12.9181 8.00675 12.5215H6.50476V13.6916C6.88061 14.4447 7.4588 15.0782 8.1745 15.521C8.89021 15.9639 9.71512 16.1986 10.5567 16.1988Z" fill="#34A853"/>
<path d="M8.00665 12.5275C7.81645 11.9648 7.81645 11.3552 8.00665 10.7925V9.62256H6.50466C6.18445 10.254 6.01758 10.952 6.01758 11.66C6.01758 12.368 6.18445 13.0661 6.50466 13.6975L8.00665 12.5275Z" fill="#FBBC04"/>
<path d="M10.5567 8.91785C11.2038 8.90603 11.8292 9.15044 12.2967 9.59781L13.5967 8.30489C12.7678 7.52696 11.6684 7.10263 10.5317 7.12197C9.69512 7.12617 8.87599 7.36196 8.16519 7.80321C7.45438 8.24445 6.87967 8.87391 6.50476 9.6218L8.00676 10.7927C8.18238 10.2528 8.52284 9.7816 8.98026 9.44529C9.43768 9.10897 9.98903 8.92451 10.5567 8.91785Z" fill="#EA4335"/>
</svg>
