<svg width="39" height="25" viewBox="0 0 39 25" fill="none" xmlns="http://www.w3.org/2000/svg">
<path d="M35.0609 0.169434H4.28515C4.15695 0.169434 4.02853 0.169434 3.90055 0.170113C3.79251 0.171019 3.6847 0.172152 3.57666 0.175096C3.34132 0.181438 3.10395 0.195481 2.87156 0.237157C2.6385 0.277087 2.4127 0.351517 2.20157 0.457996C1.77715 0.67387 1.43217 1.01885 1.2163 1.44328C1.10963 1.65448 1.03519 1.88047 0.995458 2.11372C0.953329 2.34634 0.939512 2.58348 0.93317 2.81859C0.93041 2.92654 0.928749 3.03451 0.928187 3.14249C0.927734 3.27024 0.927734 3.39844 0.927734 3.52686V20.813C0.927734 20.9414 0.927734 21.0694 0.928187 21.1978C0.928867 21.3056 0.930226 21.4137 0.93317 21.5217C0.939512 21.7564 0.953555 21.9937 0.995458 22.2261C1.03511 22.4594 1.10947 22.6854 1.21607 22.8966C1.32325 23.1075 1.46314 23.3002 1.63057 23.4674C1.7977 23.6348 1.99036 23.7747 2.20135 23.8818C2.41584 23.9912 2.63555 24.0608 2.87179 24.1031C3.10395 24.1446 3.34132 24.1586 3.57666 24.165C3.6847 24.1675 3.79251 24.1688 3.90055 24.1695C4.02853 24.1704 4.15695 24.1704 4.28515 24.1704H35.0609C35.1889 24.1704 35.3173 24.1704 35.4453 24.1695C35.5531 24.1691 35.6609 24.1675 35.7694 24.165C36.0043 24.1586 36.2417 24.1446 36.4745 24.1031C36.7076 24.0632 36.9334 23.9886 37.1445 23.8818C37.5687 23.6657 37.9136 23.3208 38.1298 22.8966C38.2392 22.6821 38.3085 22.4624 38.3504 22.2261C38.3925 21.9937 38.4061 21.7564 38.4124 21.5217C38.4154 21.4137 38.417 21.3056 38.4174 21.1978C38.4183 21.0694 38.4183 20.9414 38.4183 20.813V3.52709C38.4183 3.39866 38.4183 3.27046 38.4174 3.14226C38.417 3.03436 38.4153 2.92646 38.4124 2.81859C38.4061 2.58348 38.3925 2.34634 38.3504 2.11372C38.3109 1.88043 38.2366 1.65441 38.1298 1.44328C37.9138 1.01892 37.5688 0.673972 37.1445 0.457996C36.9333 0.351627 36.7075 0.277275 36.4745 0.237384C36.2417 0.195481 36.0043 0.181665 35.7694 0.175323C35.6614 0.172579 35.5533 0.170918 35.4453 0.17034C35.3173 0.169434 35.1889 0.169434 35.0609 0.169434Z" fill="#E9E9E9"/>
<path d="M35.0609 0.96875L35.4396 0.96943C35.542 0.970109 35.6446 0.971242 35.7477 0.97396C35.9273 0.978943 36.137 0.988682 36.3327 1.02379C36.5026 1.05437 36.6453 1.1008 36.7821 1.17056C37.0559 1.30976 37.2783 1.53242 37.4172 1.80635C37.4865 1.94225 37.5327 2.08404 37.5633 2.2555C37.5982 2.44893 37.6079 2.65935 37.6127 2.83987C37.6156 2.9418 37.617 3.04372 37.6172 3.14791C37.6183 3.27407 37.6183 3.40001 37.6183 3.52639V20.8125C37.6183 20.9388 37.6183 21.0648 37.6174 21.1934C37.617 21.2954 37.6156 21.3973 37.6129 21.4992C37.6079 21.6795 37.5982 21.8899 37.5629 22.0856C37.5372 22.2413 37.4879 22.3921 37.4168 22.533C37.2776 22.807 37.0548 23.0296 36.7807 23.1687C36.6448 23.238 36.5026 23.2845 36.3343 23.3148C36.1348 23.3504 35.916 23.3601 35.7513 23.3647C35.6478 23.3669 35.5447 23.3685 35.439 23.369C35.3133 23.3699 35.1869 23.3699 35.0609 23.3699H4.28016C4.15558 23.3699 4.03101 23.3699 3.90417 23.369C3.80223 23.3685 3.7003 23.3672 3.59839 23.3649C3.42988 23.3604 3.21108 23.3504 3.01311 23.3151C2.8566 23.289 2.70493 23.2393 2.56328 23.1678C2.42741 23.0988 2.30339 23.0086 2.1959 22.9006C2.08806 22.7929 1.998 22.6688 1.92908 22.533C1.8579 22.3913 1.80857 22.2397 1.78276 22.0833C1.74743 21.8879 1.73746 21.6784 1.73293 21.4994C1.73037 21.3971 1.72886 21.2948 1.7284 21.1925L1.72772 20.892V3.44712L1.72818 3.14701C1.72864 3.04454 1.73015 2.94208 1.73271 2.83964C1.73769 2.66026 1.74743 2.45074 1.78299 2.25369C1.80885 2.0976 1.85818 1.94632 1.92931 1.80499C1.99816 1.66954 2.08786 1.54587 2.19658 1.43738C2.30433 1.32945 2.42848 1.23925 2.56442 1.17011C2.70572 1.09912 2.8569 1.04979 3.01289 1.02379C3.20881 0.988682 3.41878 0.978943 3.59862 0.97396C3.701 0.971242 3.8036 0.970109 3.9053 0.96943L4.28514 0.96875H35.0609Z" fill="white"/>
<path d="M10.7824 8.27128C11.1004 7.87375 11.316 7.33987 11.2591 6.79443C10.7939 6.81754 10.2263 7.10135 9.89741 7.49933C9.60227 7.84 9.34111 8.39608 9.40907 8.91864C9.93138 8.96394 10.4532 8.6577 10.7824 8.27128Z" fill="black"/>
<path d="M11.2532 9.02062C10.4945 8.97532 9.84983 9.45096 9.48766 9.45096C9.12526 9.45096 8.57056 9.04327 7.97056 9.05437C7.18981 9.06569 6.46546 9.50736 6.06909 10.2095C5.25414 11.6137 5.85391 13.6975 6.64666 14.8413C7.03149 15.4075 7.49536 16.0304 8.10646 16.008C8.68403 15.9853 8.91031 15.6342 9.61201 15.6342C10.3135 15.6342 10.5173 16.008 11.1287 15.9966C11.7624 15.9853 12.1588 15.4304 12.5436 14.8642C12.9853 14.2187 13.1658 13.5958 13.1771 13.5618C13.1658 13.5505 11.9549 13.086 11.9436 11.693C11.9323 10.5266 12.8945 9.97167 12.9398 9.93747C12.3964 9.13387 11.5475 9.04327 11.253 9.02062" fill="black"/>
<path d="M18.8152 7.44434C20.4636 7.44434 21.6118 8.5807 21.6118 10.2351C21.6118 11.8953 20.4401 13.0376 18.7739 13.0376H16.9488V15.9404H15.6301V7.44434H18.8152ZM16.9488 11.9307H18.4618C19.6102 11.9307 20.2634 11.3125 20.2634 10.241C20.2634 9.1696 19.61 8.55714 18.4677 8.55714H16.9488V11.9307Z" fill="black"/>
<path d="M21.9388 14.1779C21.9388 13.0886 22.769 12.4646 24.2996 12.3703L25.9422 12.2702V11.7991C25.9422 11.1105 25.489 10.7336 24.6824 10.7336C24.017 10.7336 23.5341 11.0749 23.4344 11.5988H22.2448C22.2804 10.498 23.3164 9.69727 24.7178 9.69727C26.2249 9.69727 27.2081 10.4862 27.2081 11.711V15.9384H25.9896V14.9197H25.9601C25.6127 15.585 24.8471 16.0029 24.017 16.0029C22.7925 16.0029 21.9388 15.2731 21.9388 14.1779ZM25.9422 13.6304V13.1534L24.4763 13.2476C23.6519 13.3006 23.2224 13.6067 23.2224 14.1424C23.2224 14.6606 23.6698 14.9963 24.3703 14.9963C25.265 14.9963 25.9422 14.425 25.9422 13.6304Z" fill="black"/>
<path d="M28.3286 18.2103V17.1919C28.4111 17.2035 28.6111 17.2153 28.7171 17.2153C29.2999 17.2153 29.6297 16.9684 29.8299 16.3321L29.9477 15.9554L27.7162 9.77344H29.0938L30.6482 14.7896H30.6777L32.2319 9.77344H33.5744L31.2605 16.2673C30.7305 17.7571 30.1241 18.2458 28.8408 18.2458C28.7406 18.2458 28.4168 18.2341 28.3286 18.2103Z" fill="black"/>
</svg>
