<svg width="39" height="25" viewBox="0 0 39 25" fill="none" xmlns="http://www.w3.org/2000/svg">
<path d="M35.0609 0.477539H4.28515C4.15695 0.477539 4.02853 0.477539 3.90055 0.478219C3.79251 0.479125 3.6847 0.480257 3.57666 0.483202C3.34132 0.489544 3.10395 0.503587 2.87156 0.545263C2.6385 0.585193 2.4127 0.659623 2.20157 0.766102C1.77715 0.981975 1.43217 1.32696 1.2163 1.75138C1.10963 1.96259 1.03519 2.18857 0.995458 2.42183C0.953329 2.65444 0.939512 2.89159 0.93317 3.1267C0.93041 3.23464 0.928749 3.34261 0.928187 3.45059C0.927734 3.57834 0.927734 3.70654 0.927734 3.83497V21.1211C0.927734 21.2495 0.927734 21.3775 0.928187 21.5059C0.928867 21.6137 0.930226 21.7218 0.93317 21.8298C0.939512 22.0645 0.953555 22.3018 0.995458 22.5342C1.03511 22.7675 1.10947 22.9935 1.21607 23.2047C1.32325 23.4156 1.46314 23.6083 1.63057 23.7755C1.7977 23.9429 1.99036 24.0829 2.20135 24.19C2.41584 24.2994 2.63555 24.3689 2.87179 24.4112C3.10395 24.4527 3.34132 24.4667 3.57666 24.4731C3.6847 24.4756 3.79251 24.4769 3.90055 24.4776C4.02853 24.4785 4.15695 24.4785 4.28515 24.4785H35.0609C35.1889 24.4785 35.3173 24.4785 35.4453 24.4776C35.5531 24.4772 35.6609 24.4756 35.7694 24.4731C36.0043 24.4667 36.2417 24.4527 36.4745 24.4112C36.7076 24.3713 36.9334 24.2967 37.1445 24.19C37.5687 23.9738 37.9136 23.6289 38.1298 23.2047C38.2392 22.9902 38.3085 22.7705 38.3504 22.5342C38.3925 22.3018 38.4061 22.0645 38.4124 21.8298C38.4154 21.7218 38.417 21.6137 38.4174 21.5059C38.4183 21.3775 38.4183 21.2495 38.4183 21.1211V3.83519C38.4183 3.70677 38.4183 3.57857 38.4174 3.45037C38.417 3.34246 38.4153 3.23457 38.4124 3.1267C38.4061 2.89159 38.3925 2.65444 38.3504 2.42183C38.3109 2.18853 38.2366 1.96252 38.1298 1.75138C37.9138 1.32703 37.5688 0.982077 37.1445 0.766102C36.9333 0.659732 36.7075 0.58538 36.4745 0.545489C36.2417 0.503587 36.0043 0.48977 35.7694 0.483428C35.6614 0.480685 35.5533 0.479023 35.4453 0.478445C35.3173 0.477539 35.1889 0.477539 35.0609 0.477539Z" fill="#E9E9E9"/>
<path d="M35.061 1.27686L35.4397 1.27753C35.5421 1.27821 35.6447 1.27935 35.7477 1.28206C35.9274 1.28705 36.1371 1.29679 36.3328 1.3319C36.5027 1.36247 36.6454 1.40891 36.7822 1.47867C37.056 1.61787 37.2784 1.84052 37.4173 2.11445C37.4866 2.25035 37.5328 2.39214 37.5634 2.5636C37.5983 2.75704 37.608 2.96745 37.6127 3.14798C37.6157 3.2499 37.617 3.35183 37.6173 3.45602C37.6184 3.58218 37.6184 3.70811 37.6184 3.8345V21.1206C37.6184 21.2469 37.6184 21.3729 37.6175 21.5015C37.6171 21.6035 37.6157 21.7054 37.613 21.8073C37.608 21.9876 37.5983 22.198 37.5629 22.3937C37.5372 22.5494 37.488 22.7002 37.4168 22.8411C37.2776 23.1151 37.0549 23.3377 36.7808 23.4768C36.6449 23.5462 36.5027 23.5926 36.3344 23.6229C36.1348 23.6585 35.916 23.6682 35.7514 23.6728C35.6479 23.675 35.5448 23.6766 35.439 23.6771C35.3133 23.678 35.1869 23.678 35.061 23.678H4.28022C4.15564 23.678 4.03107 23.678 3.90423 23.6771C3.80229 23.6766 3.70036 23.6753 3.59845 23.673C3.42994 23.6685 3.21114 23.6585 3.01317 23.6232C2.85666 23.5971 2.705 23.5474 2.56334 23.4759C2.42747 23.4069 2.30346 23.3167 2.19596 23.2087C2.08813 23.101 1.99806 22.9769 1.92914 22.8411C1.85796 22.6994 1.80863 22.5478 1.78282 22.3915C1.74749 22.196 1.73752 21.9865 1.73299 21.8075C1.73043 21.7053 1.72892 21.6029 1.72846 21.5006L1.72778 21.2001V3.75522L1.72824 3.45511C1.7287 3.35264 1.73021 3.25019 1.73277 3.14775C1.73775 2.96836 1.74749 2.75885 1.78305 2.56179C1.80891 2.4057 1.85824 2.25442 1.92937 2.1131C1.99823 1.97765 2.08792 1.85398 2.19664 1.74548C2.3044 1.63756 2.42854 1.54736 2.56448 1.47821C2.70578 1.40722 2.85697 1.3579 3.01295 1.3319C3.20887 1.29679 3.41884 1.28705 3.59868 1.28206C3.70106 1.27935 3.80366 1.27821 3.90536 1.27753L4.2852 1.27686H35.061Z" fill="white"/>
<path d="M10.7824 8.57938C11.1004 8.18186 11.316 7.64797 11.2591 7.10254C10.7939 7.12564 10.2263 7.40946 9.89741 7.80744C9.60227 8.14811 9.34111 8.70419 9.40907 9.22675C9.93138 9.27205 10.4532 8.96581 10.7824 8.57938Z" fill="black"/>
<path d="M11.2532 9.32873C10.4945 9.28343 9.84983 9.75906 9.48766 9.75906C9.12526 9.75906 8.57056 9.35138 7.97056 9.36247C7.18981 9.3738 6.46546 9.81546 6.06909 10.5176C5.25414 11.9219 5.85391 14.0056 6.64666 15.1494C7.03149 15.7156 7.49536 16.3385 8.10646 16.3161C8.68403 16.2934 8.91031 15.9423 9.61201 15.9423C10.3135 15.9423 10.5173 16.3161 11.1287 16.3047C11.7624 16.2934 12.1588 15.7385 12.5436 15.1723C12.9853 14.5268 13.1658 13.9039 13.1771 13.8699C13.1658 13.8586 11.9549 13.3941 11.9436 12.0011C11.9323 10.8347 12.8945 10.2798 12.9398 10.2456C12.3964 9.44197 11.5475 9.35137 11.253 9.32873" fill="black"/>
<path d="M18.8152 7.75244C20.4636 7.75244 21.6118 8.8888 21.6118 10.5432C21.6118 12.2034 20.4401 13.3457 18.7739 13.3457H16.9488V16.2485H15.6301V7.75244H18.8152ZM16.9488 12.2388H18.4618C19.6102 12.2388 20.2634 11.6206 20.2634 10.5491C20.2634 9.47771 19.61 8.86525 18.4677 8.86525H16.9488V12.2388Z" fill="black"/>
<path d="M21.9388 14.486C21.9388 13.3967 22.769 12.7727 24.2996 12.6784L25.9422 12.5783V12.1072C25.9422 11.4186 25.489 11.0417 24.6824 11.0417C24.017 11.0417 23.5341 11.383 23.4344 11.9069H22.2448C22.2804 10.8061 23.3164 10.0054 24.7178 10.0054C26.2249 10.0054 27.2081 10.7943 27.2081 12.0191V16.2465H25.9896V15.2279H25.9601C25.6127 15.8931 24.8471 16.311 24.017 16.311C22.7925 16.311 21.9388 15.5812 21.9388 14.486ZM25.9422 13.9385V13.4615L24.4763 13.5557C23.6519 13.6087 23.2224 13.9148 23.2224 14.4505C23.2224 14.9687 23.6698 15.3044 24.3703 15.3044C25.265 15.3044 25.9422 14.7331 25.9422 13.9385Z" fill="black"/>
<path d="M28.3286 18.5184V17.5C28.4111 17.5116 28.6111 17.5234 28.7171 17.5234C29.2999 17.5234 29.6297 17.2765 29.8299 16.6402L29.9477 16.2635L27.7162 10.0815H29.0938L30.6482 15.0977H30.6777L32.2319 10.0815H33.5744L31.2605 16.5754C30.7305 18.0652 30.1241 18.554 28.8408 18.554C28.7406 18.554 28.4168 18.5422 28.3286 18.5184Z" fill="black"/>
</svg>
