<svg width="39" height="25" viewBox="0 0 39 25" fill="none" xmlns="http://www.w3.org/2000/svg">
<path fill-rule="evenodd" clip-rule="evenodd" d="M3.92773 0.478027H35.9277C36.7234 0.478027 37.4864 0.794097 38.0491 1.35671C38.6117 1.91931 38.9277 2.68238 38.9277 3.47802V21.448C38.9277 22.2437 38.6117 23.0067 38.0491 23.5693C37.4864 24.1319 36.7234 24.448 35.9277 24.448H3.92773C3.13208 24.448 2.36902 24.1319 1.80641 23.5693C1.2438 23.0067 0.927734 22.2437 0.927734 21.448L0.927734 3.47802C0.927734 2.68238 1.2438 1.91931 1.80641 1.35671C2.36902 0.794097 3.13208 0.478027 3.92773 0.478027V0.478027Z" fill="#FA82A0"/>
<path fill-rule="evenodd" clip-rule="evenodd" d="M20.6778 15.6173C19.1378 15.6173 17.8278 14.6433 17.3518 13.2933C17.5967 13.5481 17.9291 13.7004 18.282 13.7195C18.6349 13.7386 18.9818 13.6231 19.2528 13.3963L19.3128 13.3463C19.5124 13.1792 19.6586 12.9572 19.7333 12.7078C19.808 12.4584 19.8078 12.1926 19.7328 11.9433C19.9528 11.9203 20.1728 11.8493 20.3728 11.7253C20.4658 11.7653 20.5628 11.7983 20.6668 11.8173L21.3198 11.9603C20.1528 12.5453 20.0618 13.6983 20.0598 13.7133C20.0563 13.8053 20.0891 13.895 20.1513 13.963C20.2134 14.0309 20.2998 14.0716 20.3918 14.0763H20.4138C20.5023 14.0771 20.5878 14.0443 20.6532 13.9846C20.7185 13.9248 20.7587 13.8425 20.7658 13.7543C20.7698 13.6943 20.8958 12.2803 23.0018 12.3213H23.0078C23.051 12.3215 23.0937 12.3133 23.1338 12.2973C23.1438 12.2943 23.1518 12.2873 23.1618 12.2833C23.1902 12.2695 23.217 12.2528 23.2418 12.2333L23.2718 12.1993C23.2888 12.1798 23.3039 12.1587 23.3168 12.1363C23.3268 12.1203 23.3318 12.1043 23.3368 12.0883C23.3428 12.0753 23.3498 12.0653 23.3538 12.0523C23.3558 12.0423 23.3538 12.0303 23.3538 12.0183C23.3558 12.0063 23.3618 11.9963 23.3618 11.9833C23.3618 11.9733 23.3558 11.9633 23.3558 11.9513C23.3533 11.9283 23.3486 11.9055 23.3418 11.8833C23.3348 11.8633 23.3278 11.8433 23.3178 11.8233C23.3076 11.8036 23.2952 11.7852 23.2808 11.7683C23.2382 11.7146 23.1803 11.6752 23.1148 11.6553C23.1048 11.6523 23.0948 11.6453 23.0828 11.6413L20.8088 11.1453C20.7195 11.1294 20.6342 11.096 20.558 11.0469C20.4817 10.9978 20.4159 10.9341 20.3645 10.8594C20.313 10.7847 20.2769 10.7005 20.2583 10.6117C20.2396 10.523 20.2388 10.4314 20.2558 10.3423L20.2858 10.1953C20.3248 10.0185 20.4302 9.8635 20.5801 9.76211C20.7301 9.66071 20.9132 9.6207 21.0918 9.6503L24.1618 10.3923C24.4148 10.4423 24.7068 10.5843 24.7068 11.2623C24.7068 14.0923 22.6308 15.6203 20.6768 15.6203L20.6778 15.6173ZM15.8278 9.5073L15.8878 9.4573C16.0241 9.3438 16.1991 9.28766 16.3759 9.30071C16.5528 9.31377 16.7177 9.39502 16.8358 9.5273L18.9228 11.8973C19.1648 12.1703 19.1328 12.5873 18.8528 12.8223L18.7928 12.8723C18.6568 12.9861 18.4819 13.0425 18.3051 13.0299C18.1282 13.0172 17.9632 12.9363 17.8448 12.8043L15.7578 10.4343C15.7004 10.3695 15.6565 10.2938 15.6289 10.2117C15.6013 10.1296 15.5904 10.0429 15.5969 9.9565C15.6035 9.87014 15.6273 9.78598 15.6669 9.70899C15.7066 9.632 15.7613 9.56376 15.8278 9.5083V9.5073ZM17.1308 7.7093C17.4358 7.4533 17.8678 7.4533 18.0938 7.7093L19.7718 9.6213C19.6877 9.75574 19.6281 9.90404 19.5958 10.0593L19.5658 10.2053C19.4918 10.5773 19.5788 10.9453 19.7788 11.2373C19.5388 11.3023 19.2868 11.2493 19.1318 11.0733L16.9878 8.6413C16.7628 8.3843 16.8258 7.9663 17.1308 7.7093ZM17.9938 3.14929L17.9858 3.10929C17.9661 3.03009 17.9623 2.94778 17.9746 2.86711C17.987 2.78644 18.0151 2.709 18.0575 2.63927C18.0999 2.56954 18.1557 2.5089 18.2217 2.46085C18.2876 2.41279 18.3624 2.37827 18.4418 2.35929C18.6026 2.31919 18.7726 2.34362 18.9156 2.42735C19.0586 2.51108 19.1631 2.64746 19.2068 2.80729L20.5728 8.0533C20.5788 8.0753 20.5908 8.0933 20.5998 8.1133C20.6058 8.1263 20.6098 8.1393 20.6168 8.1513C20.6398 8.1863 20.6668 8.2183 20.7008 8.2413C20.7038 8.2453 20.7068 8.2453 20.7108 8.2473C20.7408 8.2703 20.7778 8.2873 20.8168 8.2973L20.8268 8.3033C20.8368 8.3053 20.8468 8.3033 20.8568 8.3033C20.8768 8.3083 20.8948 8.3133 20.9148 8.3133C20.9268 8.3133 20.9398 8.3103 20.9518 8.3093C20.9618 8.3093 20.9718 8.3073 20.9798 8.3063C20.9878 8.3043 20.9948 8.3063 21.0018 8.3033C21.0178 8.2993 21.0288 8.2893 21.0438 8.2833C21.0668 8.2733 21.0898 8.2663 21.1108 8.2533C21.1308 8.2393 21.1448 8.2233 21.1608 8.2093C21.1758 8.1933 21.1908 8.1793 21.2048 8.1593C21.2182 8.13946 21.229 8.11794 21.2368 8.0953C21.2428 8.0813 21.2528 8.0693 21.2568 8.0533L22.6238 2.80729C22.6558 2.68764 22.7223 2.58005 22.815 2.49788C22.9077 2.41571 23.0225 2.36259 23.1451 2.34512C23.2678 2.32765 23.3928 2.34659 23.5048 2.3996C23.6167 2.45262 23.7106 2.53735 23.7748 2.64329C23.8608 2.78529 23.8848 2.95029 23.8448 3.10929L23.8388 3.13929L22.8488 9.3613L21.2448 8.9743C20.9129 8.91214 20.5697 8.97028 20.2768 9.1383L18.6288 7.2583C18.5928 7.2183 18.5508 7.1863 18.5108 7.1513L17.9928 3.14829L17.9938 3.14929ZM24.3158 9.7153L23.5388 9.5283L24.5368 3.25829C24.6168 2.92829 24.5628 2.58229 24.3828 2.28829C24.1992 1.9881 23.9045 1.77249 23.5628 1.68829C22.8478 1.51329 22.1208 1.93829 21.9408 2.63629L20.9158 6.5693L19.8918 2.63929C19.7118 1.93929 18.9838 1.51429 18.2698 1.68929C17.5628 1.86529 17.1298 2.56429 17.2948 3.25529L17.7588 6.8373C17.3858 6.8073 16.9888 6.9173 16.6708 7.1873C16.2268 7.5603 16.0608 8.1273 16.1978 8.6173C15.9144 8.64045 15.6453 8.75125 15.4278 8.9343L15.3678 8.9843C15.2314 9.0981 15.1192 9.2381 15.0378 9.39601C14.9564 9.55392 14.9075 9.72655 14.894 9.90368C14.8805 10.0808 14.9026 10.2589 14.9591 10.4273C15.0156 10.5957 15.1052 10.7511 15.2228 10.8843L16.4568 12.2873C16.5168 14.5133 18.3838 16.3073 20.6768 16.3073C22.9728 16.3073 25.4138 14.5373 25.4138 11.2603C25.4138 10.1003 24.7138 9.79331 24.3138 9.7163L24.3158 9.7153ZM14.0018 21.6473H14.9998V16.8493H14.0018V21.6473ZM20.3198 18.8743V18.4443H19.3868V21.6473H20.3298V19.9693C20.3298 19.4823 20.8658 19.2693 21.2348 19.3763H21.2448V18.4463C20.8588 18.4463 20.5048 18.6163 20.3188 18.8743H20.3198ZM17.1098 20.9063C16.6218 20.9063 16.2248 20.5213 16.2248 20.0463C16.2248 19.5713 16.6218 19.1863 17.1098 19.1863C17.5998 19.1863 17.9948 19.5713 17.9948 20.0463C17.9948 20.5213 17.5988 20.9063 17.1098 20.9063ZM17.9858 18.6663C17.7093 18.4649 17.3759 18.3563 17.0338 18.3563C16.1238 18.3563 15.3838 19.1133 15.3838 20.0463C15.3838 20.9793 16.1238 21.7363 17.0338 21.7363C17.3888 21.7363 17.7168 21.6213 17.9858 21.4263V21.6463H18.8008V18.4463H17.9858V18.6663ZM23.5798 18.3583C23.2058 18.3583 22.8518 18.4763 22.6148 18.8043V18.4443H21.6828V21.6463H22.6268V19.8943C22.6268 19.4073 22.9448 19.1693 23.3268 19.1693C23.7398 19.1693 23.9768 19.4223 23.9768 19.8893V21.6473H24.9108V19.6113C24.9108 18.8653 24.3328 18.3583 23.5788 18.3583H23.5798ZM29.6548 20.5103C29.5767 20.5112 29.4995 20.5275 29.4276 20.5583C29.3558 20.589 29.2907 20.6336 29.2361 20.6895C29.1815 20.7454 29.1385 20.8115 29.1094 20.8841C29.0804 20.9566 29.0659 21.0342 29.0668 21.1123C29.0668 21.4453 29.3288 21.7143 29.6538 21.7143C29.9778 21.7143 30.2408 21.4443 30.2408 21.1123C30.2427 20.9547 30.1819 20.8028 30.0718 20.6899C29.9618 20.577 29.8114 20.5124 29.6538 20.5103H29.6548ZM26.9698 20.9053C26.4798 20.9053 26.0848 20.5203 26.0848 20.0453C26.0848 19.5703 26.4808 19.1853 26.9698 19.1853C27.4578 19.1853 27.8548 19.5703 27.8548 20.0453C27.8548 20.5203 27.4578 20.9053 26.9698 20.9053ZM27.8458 18.6653C27.5689 18.4639 27.2352 18.3553 26.8928 18.3553C25.9828 18.3553 25.2428 19.1123 25.2428 20.0453C25.2428 20.9783 25.9828 21.7353 26.8928 21.7353C27.2478 21.7353 27.5768 21.6203 27.8458 21.4253V21.6453H28.6608V18.4453H27.8458V18.6653ZM29.2528 18.5023H29.3078C29.3428 18.5023 29.3578 18.5223 29.3578 18.5523C29.3578 18.5823 29.3478 18.6063 29.3078 18.6063H29.2528V18.5023ZM29.2528 18.6153H29.2988L29.3388 18.7053H29.3838L29.3418 18.6083C29.3688 18.5953 29.3818 18.5713 29.3818 18.5383C29.3818 18.4933 29.3488 18.4623 29.2998 18.4623H29.2138V18.7043H29.2558V18.6143L29.2528 18.6153ZM9.61279 21.6453H10.6528V16.8493H9.61279V21.6473V21.6453ZM13.3228 16.8503H12.3128C12.3061 17.3619 12.1617 17.8621 11.8947 18.2985C11.6278 18.735 11.2481 19.0914 10.7958 19.3303L12.3478 21.6463H13.6148L12.2048 19.5403C12.9137 18.8236 13.3148 17.8584 13.3228 16.8503ZM29.2878 18.4003C29.3878 18.4003 29.4678 18.4853 29.4678 18.5873C29.4678 18.6893 29.3878 18.7723 29.2878 18.7723C29.1898 18.7723 29.1098 18.6893 29.1098 18.5863C29.1098 18.4833 29.1898 18.3993 29.2878 18.3993V18.4003ZM29.2878 18.8173C29.3477 18.816 29.4046 18.7911 29.4462 18.748C29.4877 18.7049 29.5106 18.6472 29.5098 18.5873C29.5098 18.4593 29.4098 18.3573 29.2878 18.3573C29.1658 18.3573 29.0678 18.4593 29.0678 18.5873C29.0678 18.7133 29.1658 18.8173 29.2878 18.8173Z" fill="white"/>
</svg>
