<svg width="39" height="25" viewBox="0 0 39 25" fill="none" xmlns="http://www.w3.org/2000/svg">
<path opacity="0.07" d="M35.9277 0.477539H3.92773C2.22773 0.477539 0.927734 1.77754 0.927734 3.47754V21.4775C0.927734 23.1775 2.32773 24.4775 3.92773 24.4775H35.9277C37.6277 24.4775 38.9277 23.1775 38.9277 21.4775V3.47754C38.9277 1.77754 37.5277 0.477539 35.9277 0.477539Z" fill="black"/>
<path d="M35.9277 1.47681C37.0277 1.47681 37.9277 2.37681 37.9277 3.47681V21.4768C37.9277 22.5768 37.0277 23.4768 35.9277 23.4768H3.92773C2.82773 23.4768 1.92773 22.5768 1.92773 21.4768V3.47681C1.92773 2.37681 2.82773 1.47681 3.92773 1.47681H35.9277Z" fill="white"/>
<path d="M15.9277 19.4775C19.7937 19.4775 22.9277 16.3435 22.9277 12.4775C22.9277 8.61155 19.7937 5.47754 15.9277 5.47754C12.0617 5.47754 8.92773 8.61155 8.92773 12.4775C8.92773 16.3435 12.0617 19.4775 15.9277 19.4775Z" fill="#EB001B"/>
<path d="M23.9277 19.4775C27.7937 19.4775 30.9277 16.3435 30.9277 12.4775C30.9277 8.61155 27.7937 5.47754 23.9277 5.47754C20.0617 5.47754 16.9277 8.61155 16.9277 12.4775C16.9277 16.3435 20.0617 19.4775 23.9277 19.4775Z" fill="#F79E1B"/>
<path d="M22.9277 12.4773C22.9277 10.0773 21.7277 7.97733 19.9277 6.77734C18.1277 8.07733 16.9277 10.1773 16.9277 12.4773C16.9277 14.7773 18.1277 16.9773 19.9277 18.1772C21.7277 16.9773 22.9277 14.8773 22.9277 12.4773Z" fill="#FF5F00"/>
</svg>
