<svg width="39" height="25" viewBox="0 0 39 25" fill="none" xmlns="http://www.w3.org/2000/svg">
<path opacity="0.07" d="M35.9277 0.478027H3.92773C2.22773 0.478027 0.927734 1.77803 0.927734 3.47803V21.478C0.927734 23.178 2.32773 24.478 3.92773 24.478H35.9277C37.6277 24.478 38.9277 23.178 38.9277 21.478V3.47803C38.9277 1.77803 37.5277 0.478027 35.9277 0.478027Z" fill="black"/>
<path d="M35.9277 1.47754C37.0277 1.47754 37.9277 2.37754 37.9277 3.47754V21.4775C37.9277 22.5775 37.0277 23.4775 35.9277 23.4775H3.92773C2.82773 23.4775 1.92773 22.5775 1.92773 21.4775V3.47754C1.92773 2.37754 2.82773 1.47754 3.92773 1.47754H35.9277Z" fill="white"/>
<path d="M24.8277 8.77803C25.0277 7.77803 24.8277 7.07803 24.2277 6.47803C23.6277 5.77803 22.5277 5.47803 21.1277 5.47803H17.0277C16.7277 5.47803 16.5277 5.67803 16.4277 5.97803L14.9277 16.078C14.9277 16.278 15.0277 16.478 15.2277 16.478H17.9277L18.3277 13.078L20.1277 10.878L24.8277 8.77803Z" fill="#003087"/>
<path d="M24.8278 8.77783L24.6278 8.97783C24.1278 11.7778 22.4277 12.7779 20.0277 12.7779H18.9277C18.6277 12.7779 18.4277 12.9779 18.3277 13.2779L17.7277 17.1779L17.5277 18.1779C17.5277 18.3779 17.6277 18.5779 17.8277 18.5779H19.9277C20.2277 18.5779 20.4277 18.3779 20.4277 18.1779V18.0779L20.8277 15.6779V15.5779C20.8277 15.3779 21.1277 15.1779 21.3277 15.1779H21.6277C23.7278 15.1779 25.3278 14.3779 25.7278 11.9778C25.9278 10.9778 25.8278 10.1778 25.3278 9.57784C25.2278 9.07783 25.0278 8.87783 24.8278 8.77783Z" fill="#3086C8"/>
<path d="M24.2278 8.57783C24.1278 8.47783 24.0278 8.47783 23.9278 8.47783C23.8278 8.47783 23.7278 8.47783 23.6278 8.37783C23.3278 8.27783 22.9278 8.27783 22.5278 8.27783H19.5278C19.4278 8.27783 19.3278 8.27783 19.3278 8.37783C19.1278 8.47783 19.0278 8.57783 19.0278 8.77783L18.3278 13.1778V13.2778C18.3278 12.9778 18.6278 12.7778 18.9278 12.7778H20.2278C22.7278 12.7778 24.3278 11.7778 24.8278 8.97783V8.77783C24.7278 8.67783 24.5278 8.57783 24.3278 8.57783H24.2278Z" fill="#012169"/>
</svg>
