<svg width="39" height="25" viewBox="0 0 39 25" fill="none" xmlns="http://www.w3.org/2000/svg">
<path opacity="0.07" d="M35.9277 0.169922H3.92773C2.22773 0.169922 0.927734 1.46992 0.927734 3.16992V21.1699C0.927734 22.8699 2.32773 24.1699 3.92773 24.1699H35.9277C37.6277 24.1699 38.9277 22.8699 38.9277 21.1699V3.16992C38.9277 1.46992 37.5277 0.169922 35.9277 0.169922Z" fill="black"/>
<path d="M35.9277 1.16943C37.0277 1.16943 37.9277 2.06943 37.9277 3.16943V21.1694C37.9277 22.2694 37.0277 23.1694 35.9277 23.1694H3.92773C2.82773 23.1694 1.92773 22.2694 1.92773 21.1694V3.16943C1.92773 2.06943 2.82773 1.16943 3.92773 1.16943H35.9277Z" fill="white"/>
<path d="M24.8277 8.46992C25.0277 7.46992 24.8277 6.76992 24.2277 6.16992C23.6277 5.46992 22.5277 5.16992 21.1277 5.16992H17.0277C16.7277 5.16992 16.5277 5.36992 16.4277 5.66992L14.9277 15.7699C14.9277 15.9699 15.0277 16.1699 15.2277 16.1699H17.9277L18.3277 12.7699L20.1277 10.5699L24.8277 8.46992Z" fill="#003087"/>
<path d="M24.8278 8.46973L24.6278 8.66973C24.1278 11.4697 22.4277 12.4697 20.0277 12.4697H18.9277C18.6277 12.4697 18.4277 12.6697 18.3277 12.9697L17.7277 16.8698L17.5277 17.8698C17.5277 18.0698 17.6277 18.2698 17.8277 18.2698H19.9277C20.2277 18.2698 20.4277 18.0698 20.4277 17.8698V17.7698L20.8277 15.3698V15.2698C20.8277 15.0698 21.1277 14.8698 21.3277 14.8698H21.6277C23.7278 14.8698 25.3278 14.0698 25.7278 11.6697C25.9278 10.6697 25.8278 9.86973 25.3278 9.26973C25.2278 8.76973 25.0278 8.56973 24.8278 8.46973Z" fill="#3086C8"/>
<path d="M24.2278 8.26973C24.1278 8.16973 24.0278 8.16973 23.9278 8.16973C23.8278 8.16973 23.7278 8.16973 23.6278 8.06973C23.3278 7.96973 22.9278 7.96973 22.5278 7.96973H19.5278C19.4278 7.96973 19.3278 7.96973 19.3278 8.06973C19.1278 8.16973 19.0278 8.26973 19.0278 8.46973L18.3278 12.8697V12.9697C18.3278 12.6697 18.6278 12.4697 18.9278 12.4697H20.2278C22.7278 12.4697 24.3278 11.4697 24.8278 8.66973V8.46973C24.7278 8.36973 24.5278 8.26973 24.3278 8.26973H24.2278Z" fill="#012169"/>
</svg>
