<svg width="39" height="25" viewBox="0 0 39 25" fill="none" xmlns="http://www.w3.org/2000/svg">
<g clip-path="url(#clip0_1064_48)">
<path opacity="0.07" d="M35.9277 0.478027H3.92773C2.22773 0.478027 0.927734 1.77803 0.927734 3.47803V21.478C0.927734 23.178 2.32773 24.478 3.92773 24.478H35.9277C37.6277 24.478 38.9277 23.178 38.9277 21.478V3.47803C38.9277 1.77803 37.5277 0.478027 35.9277 0.478027Z" fill="black"/>
<path d="M35.9277 1.47803C37.0277 1.47803 37.9277 2.37803 37.9277 3.47803V21.478C37.9277 22.578 37.0277 23.478 35.9277 23.478H3.92773C2.82773 23.478 1.92773 22.578 1.92773 21.478V3.47803C1.92773 2.37803 2.82773 1.47803 3.92773 1.47803H35.9277Z" fill="white"/>
<path d="M15.9277 19.478C19.7937 19.478 22.9277 16.344 22.9277 12.478C22.9277 8.61203 19.7937 5.47803 15.9277 5.47803C12.0617 5.47803 8.92773 8.61203 8.92773 12.478C8.92773 16.344 12.0617 19.478 15.9277 19.478Z" fill="#EB001B"/>
<path d="M23.9277 19.478C27.7937 19.478 30.9277 16.344 30.9277 12.478C30.9277 8.61203 27.7937 5.47803 23.9277 5.47803C20.0617 5.47803 16.9277 8.61203 16.9277 12.478C16.9277 16.344 20.0617 19.478 23.9277 19.478Z" fill="#00A2E5"/>
<path d="M22.9277 12.4781C22.9277 10.0781 21.7277 7.97808 19.9277 6.77808C18.1277 8.07808 16.9277 10.1781 16.9277 12.4781C16.9277 14.7781 18.1277 16.9781 19.9277 18.1781C21.7277 16.9781 22.9277 14.8781 22.9277 12.4781Z" fill="#7375CF"/>
</g>
<defs>
<clipPath id="clip0_1064_48">
<rect width="38" height="24" fill="white" transform="translate(0.927734 0.478027)"/>
</clipPath>
</defs>
</svg>
