<svg width="39" height="25" viewBox="0 0 39 25" fill="none" xmlns="http://www.w3.org/2000/svg">
<path d="M35.9277 0.169434H3.92773C2.27088 0.169434 0.927734 1.51258 0.927734 3.16943V21.1694C0.927734 22.8263 2.27088 24.1694 3.92773 24.1694H35.9277C37.5846 24.1694 38.9277 22.8263 38.9277 21.1694V3.16943C38.9277 1.51258 37.5846 0.169434 35.9277 0.169434Z" fill="#EB6F93"/>
<path fill-rule="evenodd" clip-rule="evenodd" d="M12.7317 21.624C12.1617 21.624 11.6698 21.36 11.3698 20.952L11.9337 20.3821C12.1017 20.598 12.3777 20.832 12.7437 20.832C13.0857 20.832 13.3197 20.628 13.3197 20.3041C13.3197 19.9561 13.0437 19.8721 12.6058 19.7461C11.8018 19.5121 11.4778 19.0921 11.4778 18.5521C11.4778 17.8741 11.9938 17.2861 12.8097 17.2861C13.3257 17.2861 13.7997 17.5261 14.0097 17.9941L13.3317 18.4201C13.2057 18.2101 13.0257 18.0721 12.7857 18.0721C12.5037 18.0721 12.3237 18.2641 12.3237 18.5101C12.3237 18.8041 12.5817 18.8941 12.9957 19.0141C13.6437 19.2061 14.1717 19.5301 14.1717 20.2741C14.1717 21.078 13.5477 21.624 12.7317 21.624ZM16.0297 21.624C15.1657 21.624 14.4637 20.934 14.4637 20.0941C14.4637 19.2541 15.1657 18.5641 16.0297 18.5641C16.8937 18.5641 17.5957 19.2541 17.5957 20.0941C17.5957 20.934 16.8937 21.624 16.0297 21.624ZM16.0297 20.856C16.4497 20.856 16.7797 20.526 16.7797 20.0941C16.782 19.9944 16.7643 19.8953 16.7275 19.8026C16.6908 19.7099 16.6358 19.6255 16.5659 19.5545C16.496 19.4834 16.4125 19.4271 16.3204 19.3889C16.2283 19.3507 16.1294 19.3314 16.0297 19.3321C15.6097 19.3321 15.2797 19.6621 15.2797 20.0941C15.2797 20.526 15.6097 20.856 16.0297 20.856ZM19.6157 18.1141C19.1597 18.0961 18.8297 18.3241 18.8297 18.8281V19.1401C19.0097 18.9481 19.2677 18.8521 19.5917 18.8521V19.6321C19.1417 19.6441 18.8297 19.9321 18.8297 20.3341V21.546H18.0137V18.7861C18.0137 18.0061 18.4997 17.3461 19.4957 17.3461H19.6157V18.1141ZM21.3957 21.624C20.5317 21.624 19.8297 20.934 19.8297 20.0941C19.8297 19.2541 20.5317 18.5641 21.3957 18.5641C22.2597 18.5641 22.9617 19.2541 22.9617 20.0941C22.9617 20.934 22.2597 21.624 21.3957 21.624ZM21.3957 20.856C21.8157 20.856 22.1457 20.526 22.1457 20.0941C22.148 19.9944 22.1303 19.8953 22.0935 19.8026C22.0568 19.7099 22.0018 19.6255 21.9319 19.5545C21.862 19.4834 21.7785 19.4271 21.6864 19.3889C21.5943 19.3507 21.4954 19.3314 21.3957 19.3321C20.9757 19.3321 20.6457 19.6621 20.6457 20.0941C20.6457 20.526 20.9757 20.856 21.3957 20.856ZM24.1957 18.9721C24.3577 18.7081 24.6217 18.5821 24.9937 18.5941V19.4701C24.5017 19.4701 24.2197 19.7401 24.2197 20.2201V21.546H23.4037V18.6421H24.1957V18.9721ZM26.2757 20.0641C26.2757 20.568 26.6057 20.796 27.0617 20.778V21.546H26.9417C25.9457 21.546 25.4597 20.886 25.4597 20.1061V17.7061H26.2757V18.1621C26.2757 18.5581 26.5937 18.8521 27.0377 18.8641V19.6441C26.7137 19.6441 26.4557 19.5481 26.2757 19.3561V20.0641ZM28.0377 21.594C27.8931 21.5935 27.7545 21.5358 27.6522 21.4335C27.55 21.3312 27.4923 21.1927 27.4917 21.048C27.4917 20.748 27.7377 20.502 28.0377 20.502C28.3377 20.502 28.5837 20.748 28.5837 21.048C28.5837 21.348 28.3377 21.594 28.0377 21.594ZM20.2657 14.8842C22.8157 14.8802 23.8937 13.4252 24.0897 11.0953C24.1457 10.4253 24.0337 10.0163 23.8317 9.80029C23.7888 9.75255 23.7368 9.71381 23.6787 9.68629C23.6597 9.67758 23.6395 9.67153 23.6187 9.66829L20.5957 8.96231C20.4062 8.91103 20.2074 8.90418 20.0147 8.94231C19.9042 8.96094 19.8016 9.01177 19.7197 9.08843C19.6379 9.16509 19.5805 9.26418 19.5547 9.3733C19.4537 9.71329 19.4607 9.97328 19.6757 10.1803C19.7317 10.2003 19.7767 10.2373 19.8077 10.2843C19.9577 10.3843 20.1697 10.4703 20.4557 10.5483L22.4487 10.9933C22.7787 11.0673 22.6787 11.5632 22.3447 11.5003C22.0556 11.456 21.7601 11.4846 21.4847 11.5832C20.9977 11.7662 20.6957 12.1842 20.6587 12.9602C20.657 12.9942 20.6486 13.0276 20.6341 13.0583C20.6195 13.0891 20.599 13.1167 20.5737 13.1395C20.5484 13.1624 20.5189 13.18 20.4868 13.1915C20.4548 13.2029 20.4208 13.2079 20.3867 13.2062C20.3527 13.2045 20.3194 13.1961 20.2886 13.1815C20.2578 13.1669 20.2303 13.1464 20.2074 13.1212C20.1613 13.0702 20.1373 13.0029 20.1407 12.9342C20.1827 12.0792 20.5167 11.5133 21.0557 11.2123L20.3317 11.0513C20.1121 10.9941 19.8992 10.9137 19.6967 10.8113C19.6137 10.9393 19.5047 11.0513 19.3757 11.1413L19.3187 11.1783C19.2837 11.2023 19.2477 11.2233 19.2117 11.2433C19.4417 11.6772 19.3787 12.2262 19.0207 12.5982L18.9707 12.6522C18.7544 12.8732 18.4595 12.9995 18.1503 13.0036C17.8411 13.0078 17.5429 12.8893 17.3207 12.6742L16.9327 12.2902C17.2507 13.8432 18.6347 14.8832 20.2527 14.8832H20.2657V14.8842ZM20.1757 15.4002C18.1257 15.3632 16.4027 13.8532 16.3477 11.7102L15.8767 11.2443C15.2947 10.6603 15.2007 9.85129 15.6687 9.3713L15.7187 9.3183C15.9187 9.1113 16.1827 8.99831 16.4517 8.98431C16.1267 8.34332 16.2277 7.64134 16.7337 7.29434L16.8057 7.24735C17.3557 6.92835 17.8337 7.05135 18.2427 7.45734L17.7727 3.59243C17.6147 2.92044 18.0267 2.18446 18.6547 2.05046C18.8138 2.01667 18.978 2.01468 19.1378 2.0446C19.2977 2.07452 19.45 2.13577 19.5861 2.22481C19.7222 2.31385 19.8393 2.42893 19.9307 2.56342C20.0221 2.69791 20.086 2.84915 20.1187 3.00844L20.9197 6.42836L21.9347 2.95244C22.0225 2.62477 22.2363 2.34511 22.5295 2.17445C22.8227 2.00379 23.1715 1.95599 23.4997 2.04146C24.1167 2.22446 24.4887 2.85244 24.3537 3.47743L23.2357 9.04731L23.7157 9.1593C23.8557 9.1793 24.0377 9.2623 24.2097 9.4463C24.5227 9.78029 24.6737 10.3323 24.6057 11.1383C24.3887 13.7282 23.1127 15.4262 20.1927 15.4012L20.1757 15.4002ZM22.7317 8.93031L23.8457 3.37143C23.8841 3.19733 23.8556 3.01518 23.7659 2.86109C23.6763 2.70699 23.532 2.5922 23.3617 2.53945C23.1658 2.49048 22.9585 2.52077 22.7847 2.62374C22.611 2.72671 22.4849 2.89405 22.4337 3.08944L21.1417 7.51634C21.1287 7.55936 21.1047 7.59826 21.0721 7.62924C21.0395 7.66023 20.9995 7.68223 20.9559 7.69311C20.9122 7.70399 20.8665 7.70338 20.8232 7.69132C20.7799 7.67927 20.7405 7.65619 20.7087 7.62434C20.6742 7.59039 20.65 7.54742 20.6387 7.50034L19.6127 3.11644C19.5945 3.02343 19.558 2.93499 19.5052 2.85628C19.4524 2.77757 19.3844 2.71017 19.3053 2.65803C19.2261 2.60589 19.1374 2.57005 19.0442 2.55261C18.9511 2.53517 18.8554 2.53647 18.7627 2.55645C18.4287 2.62645 18.1787 3.07944 18.2797 3.48243L18.2847 3.51343L18.8677 8.30332L19.2377 8.85531C19.3977 8.63531 19.6277 8.49732 19.9017 8.43632C20.1745 8.37947 20.4568 8.38769 20.7257 8.46032L22.7317 8.92831V8.93031ZM19.0057 9.4403L18.4337 8.58832C18.4113 8.5655 18.3934 8.53871 18.3807 8.50932L18.1187 8.11933C17.7847 7.63334 17.4607 7.46534 17.0787 7.68634L17.0237 7.72333C16.7267 7.92733 16.6857 8.42132 16.9957 8.89031L18.1277 10.5753C18.2247 10.7175 18.374 10.8155 18.543 10.8479C18.7121 10.8804 18.8871 10.8445 19.0297 10.7483L19.0857 10.7113C19.1634 10.6578 19.2283 10.5878 19.2757 10.5063C18.9937 10.2133 18.9257 9.85129 19.0057 9.4393V9.4403ZM18.6817 11.3773C18.4883 11.3798 18.2973 11.3344 18.1258 11.245C17.9542 11.1557 17.8075 11.0252 17.6987 10.8653L16.8567 9.61229C16.7427 9.52947 16.6026 9.49045 16.4621 9.50239C16.3217 9.51432 16.1902 9.57641 16.0917 9.67729L16.0417 9.73029C15.7897 9.98928 15.8457 10.4803 16.2417 10.8773L17.6817 12.3042C17.805 12.4233 17.9704 12.4888 18.1417 12.4865C18.3131 12.4843 18.4766 12.4144 18.5967 12.2922L18.6467 12.2402C18.7573 12.1256 18.8219 11.9745 18.8283 11.8154C18.8348 11.6563 18.7826 11.5004 18.6817 11.3773Z" fill="white"/>
</svg>
