<svg width="39" height="25" viewBox="0 0 39 25" fill="none" xmlns="http://www.w3.org/2000/svg">
<path d="M35.9277 0.477539H3.92773C2.27088 0.477539 0.927734 1.82068 0.927734 3.47754V21.4775C0.927734 23.1344 2.27088 24.4775 3.92773 24.4775H35.9277C37.5846 24.4775 38.9277 23.1344 38.9277 21.4775V3.47754C38.9277 1.82068 37.5846 0.477539 35.9277 0.477539Z" fill="#EB6F93"/>
<path fill-rule="evenodd" clip-rule="evenodd" d="M12.7317 21.9321C12.1617 21.9321 11.6698 21.6681 11.3698 21.2601L11.9337 20.6902C12.1017 20.9062 12.3777 21.1401 12.7437 21.1401C13.0857 21.1401 13.3197 20.9362 13.3197 20.6122C13.3197 20.2642 13.0437 20.1802 12.6058 20.0542C11.8018 19.8202 11.4778 19.4002 11.4778 18.8602C11.4778 18.1822 11.9938 17.5942 12.8097 17.5942C13.3257 17.5942 13.7997 17.8342 14.0097 18.3022L13.3317 18.7282C13.2057 18.5182 13.0257 18.3802 12.7857 18.3802C12.5037 18.3802 12.3237 18.5722 12.3237 18.8182C12.3237 19.1122 12.5817 19.2022 12.9957 19.3222C13.6437 19.5142 14.1717 19.8382 14.1717 20.5822C14.1717 21.3861 13.5477 21.9321 12.7317 21.9321ZM16.0297 21.9321C15.1657 21.9321 14.4637 21.2421 14.4637 20.4022C14.4637 19.5622 15.1657 18.8722 16.0297 18.8722C16.8937 18.8722 17.5957 19.5622 17.5957 20.4022C17.5957 21.2421 16.8937 21.9321 16.0297 21.9321ZM16.0297 21.1641C16.4497 21.1641 16.7797 20.8342 16.7797 20.4022C16.782 20.3025 16.7643 20.2034 16.7275 20.1107C16.6908 20.018 16.6358 19.9336 16.5659 19.8626C16.496 19.7915 16.4125 19.7352 16.3204 19.697C16.2283 19.6588 16.1294 19.6395 16.0297 19.6402C15.6097 19.6402 15.2797 19.9702 15.2797 20.4022C15.2797 20.8342 15.6097 21.1641 16.0297 21.1641ZM19.6157 18.4222C19.1597 18.4042 18.8297 18.6322 18.8297 19.1362V19.4482C19.0097 19.2562 19.2677 19.1602 19.5917 19.1602V19.9402C19.1417 19.9522 18.8297 20.2402 18.8297 20.6422V21.8541H18.0137V19.0942C18.0137 18.3142 18.4997 17.6542 19.4957 17.6542H19.6157V18.4222ZM21.3957 21.9321C20.5317 21.9321 19.8297 21.2421 19.8297 20.4022C19.8297 19.5622 20.5317 18.8722 21.3957 18.8722C22.2597 18.8722 22.9617 19.5622 22.9617 20.4022C22.9617 21.2421 22.2597 21.9321 21.3957 21.9321ZM21.3957 21.1641C21.8157 21.1641 22.1457 20.8342 22.1457 20.4022C22.148 20.3025 22.1303 20.2034 22.0935 20.1107C22.0568 20.018 22.0018 19.9336 21.9319 19.8626C21.862 19.7915 21.7785 19.7352 21.6864 19.697C21.5943 19.6588 21.4954 19.6395 21.3957 19.6402C20.9757 19.6402 20.6457 19.9702 20.6457 20.4022C20.6457 20.8342 20.9757 21.1641 21.3957 21.1641ZM24.1957 19.2802C24.3577 19.0162 24.6217 18.8902 24.9937 18.9022V19.7782C24.5017 19.7782 24.2197 20.0482 24.2197 20.5282V21.8541H23.4037V18.9502H24.1957V19.2802ZM26.2757 20.3722C26.2757 20.8762 26.6057 21.1041 27.0617 21.0861V21.8541H26.9417C25.9457 21.8541 25.4597 21.1941 25.4597 20.4142V18.0142H26.2757V18.4702C26.2757 18.8662 26.5937 19.1602 27.0377 19.1722V19.9522C26.7137 19.9522 26.4557 19.8562 26.2757 19.6642V20.3722ZM28.0377 21.9021C27.8931 21.9016 27.7545 21.8439 27.6522 21.7416C27.55 21.6394 27.4923 21.5008 27.4917 21.3561C27.4917 21.0562 27.7377 20.8102 28.0377 20.8102C28.3377 20.8102 28.5837 21.0562 28.5837 21.3561C28.5837 21.6561 28.3377 21.9021 28.0377 21.9021ZM20.2657 15.1923C22.8157 15.1883 23.8937 13.7333 24.0897 11.4034C24.1457 10.7334 24.0337 10.3244 23.8317 10.1084C23.7888 10.0607 23.7368 10.0219 23.6787 9.9944C23.6597 9.98569 23.6395 9.97963 23.6187 9.9764L20.5957 9.27041C20.4062 9.21913 20.2074 9.21229 20.0147 9.25041C19.9042 9.26905 19.8016 9.31987 19.7197 9.39653C19.6379 9.4732 19.5805 9.57229 19.5547 9.6814C19.4537 10.0214 19.4607 10.2814 19.6757 10.4884C19.7317 10.5084 19.7767 10.5454 19.8077 10.5924C19.9577 10.6924 20.1697 10.7784 20.4557 10.8564L22.4487 11.3014C22.7787 11.3754 22.6787 11.8714 22.3447 11.8084C22.0556 11.7641 21.7601 11.7927 21.4847 11.8914C20.9977 12.0744 20.6957 12.4923 20.6587 13.2683C20.657 13.3023 20.6486 13.3357 20.6341 13.3664C20.6195 13.3972 20.599 13.4248 20.5737 13.4477C20.5484 13.4705 20.5189 13.4881 20.4868 13.4996C20.4548 13.511 20.4208 13.516 20.3867 13.5143C20.3527 13.5126 20.3194 13.5042 20.2886 13.4896C20.2578 13.475 20.2303 13.4545 20.2074 13.4293C20.1613 13.3783 20.1373 13.311 20.1407 13.2423C20.1827 12.3873 20.5167 11.8214 21.0557 11.5204L20.3317 11.3594C20.1121 11.3022 19.8992 11.2218 19.6967 11.1194C19.6137 11.2474 19.5047 11.3594 19.3757 11.4494L19.3187 11.4864C19.2837 11.5104 19.2477 11.5314 19.2117 11.5514C19.4417 11.9854 19.3787 12.5343 19.0207 12.9063L18.9707 12.9603C18.7544 13.1813 18.4595 13.3076 18.1503 13.3117C17.8411 13.3159 17.5429 13.1974 17.3207 12.9823L16.9327 12.5983C17.2507 14.1513 18.6347 15.1913 20.2527 15.1913H20.2657V15.1923ZM20.1757 15.7083C18.1257 15.6713 16.4027 14.1613 16.3477 12.0184L15.8767 11.5524C15.2947 10.9684 15.2007 10.1594 15.6687 9.6794L15.7187 9.62641C15.9187 9.41941 16.1827 9.30641 16.4517 9.29241C16.1267 8.65143 16.2277 7.94944 16.7337 7.60245L16.8057 7.55545C17.3557 7.23646 17.8337 7.35946 18.2427 7.76545L17.7727 3.90053C17.6147 3.22855 18.0267 2.49256 18.6547 2.35857C18.8138 2.32478 18.978 2.32278 19.1378 2.35271C19.2977 2.38263 19.45 2.44387 19.5861 2.53291C19.7222 2.62195 19.8393 2.73703 19.9307 2.87152C20.0221 3.00601 20.086 3.15726 20.1187 3.31654L20.9197 6.73647L21.9347 3.26055C22.0225 2.93288 22.2363 2.65322 22.5295 2.48256C22.8227 2.3119 23.1715 2.26409 23.4997 2.34957C24.1167 2.53256 24.4887 3.16055 24.3537 3.78553L23.2357 9.35541L23.7157 9.46741C23.8557 9.48741 24.0377 9.57041 24.2097 9.7544C24.5227 10.0884 24.6737 10.6404 24.6057 11.4464C24.3887 14.0363 23.1127 15.7343 20.1927 15.7093L20.1757 15.7083ZM22.7317 9.23841L23.8457 3.67954C23.8841 3.50543 23.8556 3.32329 23.7659 3.16919C23.6763 3.0151 23.532 2.9003 23.3617 2.84756C23.1658 2.79859 22.9585 2.82888 22.7847 2.93185C22.611 3.03482 22.4849 3.20216 22.4337 3.39754L21.1417 7.82444C21.1287 7.86747 21.1047 7.90637 21.0721 7.93735C21.0395 7.96833 20.9995 7.99034 20.9559 8.00122C20.9122 8.0121 20.8665 8.01148 20.8232 7.99943C20.7799 7.98737 20.7405 7.96429 20.7087 7.93244C20.6742 7.89849 20.65 7.85553 20.6387 7.80845L19.6127 3.42454C19.5945 3.33153 19.558 3.24309 19.5052 3.16438C19.4524 3.08567 19.3844 3.01828 19.3053 2.96614C19.2261 2.914 19.1374 2.87816 19.0442 2.86072C18.9511 2.84327 18.8554 2.84458 18.7627 2.86456C18.4287 2.93455 18.1787 3.38754 18.2797 3.79053L18.2847 3.82153L18.8677 8.61143L19.2377 9.16341C19.3977 8.94342 19.6277 8.80542 19.9017 8.74442C20.1745 8.68758 20.4568 8.6958 20.7257 8.76842L22.7317 9.23641V9.23841ZM19.0057 9.7484L18.4337 8.89642C18.4113 8.8736 18.3934 8.84681 18.3807 8.81742L18.1187 8.42743C17.7847 7.94144 17.4607 7.77345 17.0787 7.99444L17.0237 8.03144C16.7267 8.23544 16.6857 8.72942 16.9957 9.19841L18.1277 10.8834C18.2247 11.0256 18.374 11.1236 18.543 11.156C18.7121 11.1885 18.8871 11.1526 19.0297 11.0564L19.0857 11.0194C19.1634 10.9659 19.2283 10.8959 19.2757 10.8144C18.9937 10.5214 18.9257 10.1594 19.0057 9.7474V9.7484ZM18.6817 11.6854C18.4883 11.6879 18.2973 11.6425 18.1258 11.5531C17.9542 11.4638 17.8075 11.3333 17.6987 11.1734L16.8567 9.9204C16.7427 9.83757 16.6026 9.79856 16.4621 9.81049C16.3217 9.82243 16.1902 9.88451 16.0917 9.9854L16.0417 10.0384C15.7897 10.2974 15.8457 10.7884 16.2417 11.1854L17.6817 12.6123C17.805 12.7314 17.9704 12.7969 18.1417 12.7946C18.3131 12.7924 18.4766 12.7226 18.5967 12.6003L18.6467 12.5483C18.7573 12.4337 18.8219 12.2826 18.8283 12.1235C18.8348 11.9644 18.7826 11.8085 18.6817 11.6854Z" fill="white"/>
</svg>
