<svg width="39" height="25" viewBox="0 0 39 25" fill="none" xmlns="http://www.w3.org/2000/svg">
<path d="M36.6397 24.478H3.21573C2.61148 24.4804 2.031 24.2427 1.60195 23.8172C1.17289 23.3917 0.930381 22.8133 0.927734 22.209L0.927734 2.74705C0.929045 2.44777 0.989291 2.15167 1.10503 1.87567C1.22078 1.59967 1.38975 1.34918 1.6023 1.13848C1.81486 0.927783 2.06683 0.761016 2.34383 0.6477C2.62084 0.534384 2.91745 0.476738 3.21673 0.478054H36.6377C36.9371 0.476606 37.2338 0.534155 37.5109 0.647411C37.7881 0.760668 38.0401 0.927415 38.2528 1.13812C38.4655 1.34883 38.6345 1.59938 38.7503 1.87544C38.8661 2.15151 38.9264 2.44768 38.9277 2.74705V22.209C38.9251 22.8133 38.6826 23.3917 38.2535 23.8172C37.8245 24.2427 37.244 24.4804 36.6397 24.478Z" fill="#5C6AC4"/>
<path d="M36.6398 23.9778H3.21574C2.74409 23.9802 2.29079 23.7952 1.9555 23.4634C1.62021 23.1317 1.43038 22.6804 1.42773 22.2087V2.74658C1.43064 2.27483 1.6207 1.82354 1.95615 1.49184C2.29159 1.16014 2.74499 0.975168 3.21674 0.977562H36.6378C37.1095 0.975168 37.5629 1.16014 37.8983 1.49184C38.2338 1.82354 38.4238 2.27483 38.4268 2.74658V22.2087C38.4268 23.1818 37.6298 23.9778 36.6388 23.9778H36.6398Z" stroke="#142688" stroke-opacity="0.2"/>
<path d="M13.8197 8.41182L12.9847 8.34882L12.3707 7.73881C12.3561 7.72446 12.3383 7.71383 12.3187 7.70781L11.9237 16.828L15.0417 16.15L13.9097 8.49582C13.9063 8.47379 13.8955 8.45355 13.8792 8.43833C13.8629 8.42311 13.842 8.41378 13.8197 8.41182ZM11.0097 8.06181V7.95381C11.0097 7.62381 10.9647 7.3568 10.8897 7.1458C11.1867 7.1828 11.3837 7.5198 11.5097 7.90581C11.3617 7.95281 11.1927 8.00581 11.0097 8.06181ZM10.3567 11.3569C10.3567 11.3569 10.0107 11.1719 9.58673 11.1719C8.96473 11.1719 8.93373 11.5619 8.93373 11.6599C8.93373 12.1969 10.3317 12.4019 10.3317 13.6599C10.3317 14.6479 9.70473 15.285 8.85873 15.285C7.84473 15.285 7.32473 14.6529 7.32473 14.6529L7.59673 13.7559C7.59673 13.7559 8.13073 14.2129 8.58073 14.2129C8.63445 14.2151 8.68805 14.2063 8.73828 14.1872C8.78851 14.168 8.83433 14.1388 8.87295 14.1014C8.91156 14.064 8.94218 14.0192 8.96295 13.9696C8.98371 13.92 8.99418 13.8667 8.99373 13.8129C8.99373 13.1129 7.84573 13.0819 7.84573 11.9309C7.84573 10.9639 8.54073 10.0269 9.94373 10.0269C10.4837 10.0269 10.7507 10.1819 10.7507 10.1819L10.3567 11.3569ZM10.1267 6.83679C10.1882 6.83781 10.2479 6.85771 10.2977 6.89379C9.86973 7.09579 9.40973 7.6038 9.21673 8.61682L8.39973 8.87083C8.62673 8.09681 9.16573 6.83579 10.1267 6.83579V6.83679ZM10.6597 8.11281V8.17082L9.62573 8.49082C9.82473 7.72281 10.1977 7.3508 10.5237 7.2108C10.6057 7.4178 10.6597 7.71381 10.6597 8.11281ZM12.1467 7.71081L11.8367 7.80581C11.6517 7.2738 11.3267 6.78579 10.7517 6.78579C10.7357 6.78579 10.7197 6.78579 10.7037 6.78779C10.5407 6.57178 10.3387 6.47778 10.1637 6.47778C8.82673 6.47778 8.18873 8.14882 7.98773 8.99783L7.05273 9.28784C6.76273 9.37984 6.75273 9.38784 6.71573 9.66184C6.68673 9.86785 5.92773 15.736 5.92773 15.736L11.7827 16.833L12.1777 7.70281C12.1673 7.70495 12.1569 7.70762 12.1467 7.71081ZM19.5407 12.0589C19.6837 12.0809 19.8267 12.1029 20.0467 12.1029C21.0167 12.1029 21.5447 11.3759 21.5447 10.6599C21.5447 10.0099 21.1147 9.74585 20.5207 9.74585C20.2787 9.74585 20.0907 9.75585 19.9707 9.78985L19.5407 12.0589ZM18.6927 8.69883C19.1547 8.58882 19.8497 8.52282 20.4887 8.52282C21.1047 8.52282 21.8647 8.63282 22.3827 9.04083C22.8227 9.38184 23.0767 9.91085 23.0767 10.5389C23.0814 10.9448 22.9947 11.3467 22.8232 11.7147C22.6516 12.0826 22.3996 12.4074 22.0857 12.6649C21.5127 13.1269 20.6857 13.3369 19.8607 13.3369C19.6507 13.3369 19.4527 13.3149 19.3097 13.3029L18.7917 15.991H17.3047L18.6927 8.69883ZM26.4077 11.6839C26.2819 11.6525 26.1524 11.6377 26.0227 11.6399C25.0317 11.6399 24.3597 13.0609 24.3597 13.9979C24.3597 14.5149 24.5247 14.8679 24.9327 14.8679C25.3837 14.8679 25.9017 14.3059 26.1327 13.0829L26.4087 11.6839H26.4077ZM25.9347 15.992C25.9447 15.683 25.9787 15.342 26.0007 14.9779H25.9667C25.4937 15.815 24.8547 16.102 24.2927 16.102C23.3787 16.102 22.7947 15.375 22.7947 14.3059C22.7947 12.5439 23.8847 10.4839 26.4407 10.4839C27.0046 10.4888 27.5649 10.574 28.1047 10.7369L27.5317 13.6119C27.3997 14.2949 27.2997 15.342 27.3117 15.992H25.9347ZM30.2917 10.7449L30.5337 13.0289C30.6007 13.5689 30.6437 13.9539 30.6657 14.3059H30.6887C30.8087 13.9429 30.9197 13.6009 31.1397 13.0169L32.0657 10.7449H33.6517L31.7897 14.5929C31.1297 15.959 30.4897 16.961 29.7957 17.611C29.2557 18.118 28.6177 18.371 28.3087 18.437L27.8907 17.148C28.1966 17.0476 28.4861 16.9027 28.7497 16.718C29.0943 16.4839 29.3776 16.1704 29.5757 15.804C29.6197 15.727 29.6307 15.661 29.6087 15.551L28.7657 10.7449H30.2917Z" fill="white"/>
</svg>
