<svg width="39" height="25" viewBox="0 0 39 25" fill="none" xmlns="http://www.w3.org/2000/svg">
<path opacity="0.07" d="M35.9277 0.477539H3.92773C2.22773 0.477539 0.927734 1.77754 0.927734 3.47754V21.4775C0.927734 23.1775 2.32773 24.4775 3.92773 24.4775H35.9277C37.6277 24.4775 38.9277 23.1775 38.9277 21.4775V3.47754C38.9277 1.77754 37.5277 0.477539 35.9277 0.477539Z" fill="black"/>
<path d="M35.9277 1.47681C37.0277 1.47681 37.9277 2.37681 37.9277 3.47681V21.4768C37.9277 22.5768 37.0277 23.4768 35.9277 23.4768H3.92773C2.82773 23.4768 1.92773 22.5768 1.92773 21.4768V3.47681C1.92773 2.37681 2.82773 1.47681 3.92773 1.47681H35.9277Z" fill="white"/>
<path d="M29.2277 10.5776H28.9277C28.5277 11.5776 28.2277 12.0776 27.9277 13.5777H29.8277C29.5277 12.0776 29.5277 11.3776 29.2277 10.5776ZM32.1277 16.4778H30.4277C30.3277 16.4778 30.3277 16.4778 30.2277 16.3778L30.0277 15.4778L29.9277 15.2777H27.5277C27.4277 15.2777 27.3277 15.2777 27.3277 15.4778L27.0277 16.3778C27.0277 16.4778 26.9277 16.4778 26.9277 16.4778H24.8277L25.0277 15.9778L27.9277 9.17756C27.9277 8.67754 28.2277 8.47754 28.7277 8.47754H30.2277C30.3277 8.47754 30.4277 8.47754 30.4277 8.67754L31.8277 15.1777C31.9277 15.5778 32.0277 15.8778 32.0277 16.2778C32.1277 16.3778 32.1277 16.3778 32.1277 16.4778ZM18.7277 16.1778L19.1277 14.3777C19.2277 14.3777 19.3277 14.4777 19.3277 14.4777C20.0277 14.7777 20.7277 14.9777 21.4277 14.8777C21.6277 14.8777 21.9277 14.7777 22.1277 14.6777C22.6277 14.4777 22.6277 13.9777 22.2277 13.5777C22.0277 13.3777 21.7277 13.2777 21.4277 13.0777C21.0277 12.8777 20.6277 12.6777 20.3277 12.3777C19.1277 11.3776 19.5277 9.97759 20.2277 9.27756C20.8277 8.87755 21.1277 8.47754 21.9277 8.47754C23.1277 8.47754 24.4277 8.47754 25.0277 8.67754H25.1277C25.0277 9.27756 24.9277 9.77758 24.7277 10.3776C24.2277 10.1776 23.7277 9.97758 23.2277 9.97758C22.9277 9.97758 22.6277 9.97759 22.3277 10.0776C22.1277 10.0776 22.0277 10.1776 21.9277 10.2776C21.7277 10.4776 21.7277 10.7776 21.9277 10.9776L22.4277 11.3776C22.8277 11.5776 23.2277 11.7776 23.5277 11.9776C24.0277 12.2777 24.5277 12.7777 24.6277 13.3777C24.8277 14.2777 24.5277 15.0777 23.7277 15.6778C23.2277 16.0778 23.0277 16.2778 22.3277 16.2778C20.9277 16.2778 19.8277 16.3778 18.9277 16.0778C18.8277 16.2778 18.8277 16.2778 18.7277 16.1778ZM15.2277 16.4778C15.3277 15.7778 15.3277 15.7778 15.4277 15.4778C15.9277 13.2777 16.4277 10.9776 16.8277 8.77755C16.9277 8.57754 16.9277 8.47754 17.1277 8.47754H18.9277C18.7277 9.67758 18.5277 10.5776 18.2277 11.6776C17.9277 13.1777 17.6277 14.6777 17.2277 16.1778C17.2277 16.3778 17.1277 16.3778 16.9277 16.3778L15.2277 16.4778ZM5.92773 8.67754C5.92773 8.57754 6.12773 8.47754 6.22773 8.47754H9.62774C10.1277 8.47754 10.5277 8.77755 10.6277 9.27756L11.5277 13.6777C11.5277 13.7777 11.5277 13.7777 11.6277 13.8777C11.6277 13.7777 11.7277 13.7777 11.7277 13.7777L13.8277 8.67754C13.7277 8.57754 13.8277 8.47754 13.9277 8.47754H16.0277C16.0277 8.57754 16.0277 8.57754 15.9277 8.67754L12.8277 15.9778C12.7277 16.1778 12.7277 16.2778 12.6277 16.3778C12.5277 16.4778 12.3277 16.3778 12.1277 16.3778H10.6277C10.5277 16.3778 10.4277 16.3778 10.4277 16.1778L8.82774 9.97758C8.62774 9.77758 8.32774 9.47757 7.92774 9.37757C7.32774 9.07756 6.22773 8.87755 6.02773 8.87755L5.92773 8.67754Z" fill="#142688"/>
</svg>
